<?xml version="1.0" encoding="UTF-8"?>
<!DOCTYPE svg PUBLIC "-//W3C//DTD SVG 1.1//EN" "http://www.w3.org/Graphics/SVG/1.1/DTD/svg11.dtd">
<!-- Creator: CorelDRAW X8 -->
<svg xmlns="http://www.w3.org/2000/svg" xml:space="preserve" width="464.117mm" height="86.1282mm" version="1.1" style="shape-rendering:geometricPrecision; text-rendering:geometricPrecision; image-rendering:optimizeQuality; fill-rule:evenodd; clip-rule:evenodd"
viewBox="0 0 22895 4249"
 xmlns:xlink="http://www.w3.org/1999/xlink">
 <defs>
  <style type="text/css">
   <![CDATA[
    .str0 {stroke:#373435;stroke-width:9.86624}
    .fil6 {fill:none}
    .fil0 {fill:#FEFEFE}
    .fil4 {fill:#FCDC6B}
    .fil1 {fill:#6A99D0}
    .fil5 {fill:#201E1E}
    .fil2 {fill:#F50953}
    .fil3 {fill:#FEFEFE;fill-rule:nonzero}
    .fil8 {fill:#6383C1;fill-rule:nonzero}
    .fil7 {fill:url(#id1)}
   ]]>
  </style>
     <clipPath id="id0">
      <path d="M8717 1868c104,-21 209,-43 343,-60 135,-16 301,-27 449,-32 148,-6 278,-6 409,2 130,8 261,23 390,42 129,20 258,44 386,68 0,96 0,191 -26,304 -26,114 -78,244 -159,358 -80,114 -189,212 -279,277 -91,64 -162,94 -245,118 -83,24 -176,41 -269,43 -92,1 -183,-15 -273,-40 -89,-25 -176,-59 -270,-123 -95,-63 -197,-154 -276,-262 -78,-107 -132,-231 -158,-350 -27,-118 -24,-232 -22,-345z"/>
     </clipPath>
  <linearGradient id="id1" gradientUnits="userSpaceOnUse" x1="20138.9" y1="3465.52" x2="20138.9" y2="783.286">
   <stop offset="0" style="stop-opacity:1; stop-color:#FCDC6B"/>
   <stop offset="1" style="stop-opacity:1; stop-color:#DF4158"/>
  </linearGradient>
 </defs>
 <g id="Capa_x0020_1">
  <metadata id="CorelCorpID_0Corel-Layer"/>
  <rect class="fil0 str0" x="5" y="5" width="22886" height="4239" rx="8582" ry="2119"/>
  <g id="_735451872">
   <circle class="fil1" cx="2757" cy="2124" r="1341"/>
   <circle class="fil2" cx="6273" cy="2124" r="1341"/>
   <path class="fil0" d="M2114 2021l238 0c19,0 34,15 34,34l0 685c0,19 -15,34 -34,34l-238 0c-19,0 -35,-15 -35,-34l0 -685c0,-19 16,-34 35,-34zm412 657l727 0c53,0 97,-43 97,-97l0 0c0,-40 -26,-75 -62,-90l0 0 18 0c51,0 93,-56 93,-107l0 0c0,-52 -42,-94 -93,-94l-18 0 0 -8 52 0c51,0 94,-42 94,-93l0 0c0,-52 -43,-94 -94,-94l-52 0 0 -8 52 0c51,0 94,-42 94,-93l0 0c0,-52 -43,-94 -94,-94l-93 0c-4,0 -7,0 -11,0 -2,0 -5,0 -8,0l-295 0c-3,-1 -3,-4 0,-10 5,-10 16,-30 33,-60 17,-30 38,-69 49,-119 11,-50 10,-111 1,-159 -8,-47 -25,-82 -46,-104 -22,-22 -47,-32 -73,-33 -26,-1 -53,6 -72,23 -19,18 -29,45 -34,80 -4,36 -1,80 -2,107 -2,27 -7,38 -24,51 -18,13 -47,30 -74,53 -27,24 -52,54 -78,89 -42,54 -147,190 -147,248l0 552c0,33 27,60 60,60z"/>
   <path class="fil3" d="M6273 1619c117,-203 235,-304 470,-304 259,0 470,310 470,533 0,405 -562,844 -940,1086 -340,-209 -940,-681 -940,-1086 0,-223 211,-533 470,-533 235,0 352,101 470,304z"/>
   <g>
    <circle class="fil4" cx="9758" cy="2124" r="1341"/>
    <g>
     <g>
      <path class="fil5" d="M8892 1334c0,74 85,83 145,106l14 6c-31,8 -198,42 -218,54 -22,12 -34,34 -37,57l0 19c4,33 30,63 79,63 23,0 50,-10 74,-15l214 -49c34,-8 185,-35 208,-54 41,-34 38,-85 9,-115 -13,-12 -37,-20 -54,-26 -66,-22 -316,-117 -363,-117 -37,0 -71,35 -71,71z"/>
      <path class="fil5" d="M10083 1488c0,63 50,75 95,84 48,10 96,23 143,33l214 49c41,10 50,14 91,14 28,0 62,-35 62,-63 0,-79 -41,-79 -105,-95 -50,-13 -100,-23 -150,-34l122 -46c2,-1 7,-5 10,-7 53,-47 25,-131 -52,-131 -18,0 -99,29 -118,36 -66,26 -173,57 -233,81 -39,15 -79,26 -79,79z"/>
     </g>
    </g>
    <path class="fil5" d="M8717 1868c104,-21 209,-43 343,-60 135,-16 301,-27 449,-32 148,-6 278,-6 409,2 130,8 261,23 390,42 129,20 258,44 386,68 0,96 0,191 -26,304 -26,114 -78,244 -159,358 -80,114 -189,212 -279,277 -91,64 -162,94 -245,118 -83,24 -176,41 -269,43 -92,1 -183,-15 -273,-40 -89,-25 -176,-59 -270,-123 -95,-63 -197,-154 -276,-262 -78,-107 -132,-231 -158,-350 -27,-118 -24,-232 -22,-345z"/>
    <g style="clip-path:url(#id0)">
     <g>
      <ellipse class="fil2" cx="9710" cy="2983" rx="828" ry="595"/>
     </g>
    </g>
    <path class="fil6" d="M8717 1868c104,-21 209,-43 343,-60 135,-16 301,-27 449,-32 148,-6 278,-6 409,2 130,8 261,23 390,42 129,20 258,44 386,68 0,96 0,191 -26,304 -26,114 -78,244 -159,358 -80,114 -189,212 -279,277 -91,64 -162,94 -245,118 -83,24 -176,41 -269,43 -92,1 -183,-15 -273,-40 -89,-25 -176,-59 -270,-123 -95,-63 -197,-154 -276,-262 -78,-107 -132,-231 -158,-350 -27,-118 -24,-232 -22,-345z"/>
   </g>
   <g>
    <circle class="fil4" cx="13216" cy="2124" r="1341"/>
    <g>
     <g>
      <path class="fil5" d="M12392 1204c0,62 77,97 126,55 14,-13 27,-35 56,-57 12,-8 20,-15 33,-22 56,-28 100,-3 138,39 50,57 136,25 136,-48 0,-61 -222,-287 -450,-41 -7,7 -6,7 -11,14 -13,16 -28,30 -28,60z"/>
      <path class="fil5" d="M13570 1171c0,63 61,93 108,70 19,-10 49,-49 79,-63 44,-21 80,-8 115,21 11,9 19,15 29,25 16,16 47,73 109,48 14,-5 22,-12 31,-23 11,-14 16,-26 18,-38l0 -14c-4,-29 -28,-51 -38,-64 -42,-55 -144,-117 -221,-117 -54,0 -112,24 -145,48l-53 43c-5,6 -4,6 -9,12 -12,15 -23,23 -23,52z"/>
     </g>
    </g>
    <ellipse class="fil5" transform="matrix(1.43407 -0 -0.0857114 1.03294 12611 1815.45)" rx="137" ry="268"/>
    <ellipse class="fil5" transform="matrix(-1.43407 -0 0.0857114 1.03294 13832.4 1815.45)" rx="137" ry="268"/>
    <ellipse class="fil5" cx="13218" cy="2720" rx="331" ry="544"/>
   </g>
   <g>
    <circle class="fil7" cx="20139" cy="2124" r="1341"/>
    <path class="fil5" d="M20305 2993c269,0 296,59 296,106 0,48 -133,67 -296,67 -164,0 -297,-19 -297,-67 0,-47 27,-106 297,-106z"/>
    <path class="fil5" d="M19326 2683c0,73 59,85 131,106 8,2 16,4 24,7 35,78 118,134 214,134 62,0 118,-23 160,-60 28,4 56,6 85,9 42,3 65,6 91,-17 37,-35 39,-116 -48,-131l-206 -24c-85,-12 -242,-47 -327,-78 -15,-6 -30,-11 -45,-13l-16 0c-13,1 -26,7 -40,20 -9,8 -23,31 -23,47zm242 135c7,2 15,4 22,5 -7,-1 -15,-3 -22,-5z"/>
    <path class="fil5" d="M21258 2697c0,69 -56,80 -125,100 -7,2 -14,4 -22,6 -33,74 -111,127 -202,127 -58,0 -111,-22 -150,-56 -27,3 -54,5 -81,8 -39,3 -61,6 -85,-17 -35,-33 -38,-109 44,-123l195 -22c81,-12 228,-45 308,-74 14,-5 28,-11 43,-12l15 0c12,1 24,7 37,18 9,9 23,30 23,45zm-229 127c-7,2 -14,4 -21,5 7,-1 14,-3 21,-5z"/>
   </g>
   <g>
    <circle class="fil4" cx="16680" cy="2124" r="1324"/>
    <ellipse class="fil5" cx="16053" cy="2304" rx="181" ry="214"/>
    <ellipse class="fil5" cx="17300" cy="2304" rx="181" ry="214"/>
    <g>
     <g>
      <path class="fil5" d="M17168 1913c0,49 27,82 74,82 28,0 114,-39 203,20 28,19 42,59 86,59 40,0 72,-30 76,-68 4,-42 -30,-70 -52,-92 -48,-49 -134,-75 -213,-80l-41 0c-74,4 -133,31 -133,79z"/>
      <path class="fil5" d="M15841 2074c74,0 75,-119 251,-87 22,4 20,8 45,8 75,0 105,-113 18,-145 -23,-9 -51,-14 -80,-16l-40 0c-80,4 -167,32 -212,78 -23,23 -55,48 -54,87 1,40 34,75 72,75z"/>
     </g>
    </g>
    <path class="fil5" d="M16319 2981c0,50 24,86 74,86 21,0 48,-18 63,-27 127,-77 250,-89 386,-34 57,23 108,92 169,36 18,-17 21,-30 21,-57 0,-39 -26,-54 -49,-70 -88,-62 -189,-91 -291,-91 -109,0 -218,31 -313,89 -12,7 -28,15 -38,24 -8,8 -22,29 -22,44z"/>
    <path class="fil8" d="M17471 2779c35,133 214,318 214,424 0,106 -54,213 -214,213 -161,0 -214,-107 -214,-213 0,-106 180,-298 214,-424z"/>
   </g>
  </g>
 </g>
</svg>
